<?xml version="1.0" encoding="utf-8"?>
<!-- Generator: Adobe Illustrator 21.0.0, SVG Export Plug-In . SVG Version: 6.00 Build 0)  -->
<svg version="1.1" id="圖層_1" xmlns="http://www.w3.org/2000/svg" xmlns:xlink="http://www.w3.org/1999/xlink" x="0px" y="0px"
	 viewBox="0 0 595 842" style="enable-background:new 0 0 595 842;" xml:space="preserve">
<style type="text/css">
	.st0{fill:#FF5A5E;}
</style>
<g id="XMLID_1_">
	<g>
		<path class="st0" d="M128.9,88.1c4.2,8.8,2.8,16.5-3.4,21.8c-6.2,5.4-15.3,5.5-23.1,0.1c-2.7-1.9-5.2-5.7-7.8-5.7
			c-2.6,0-5.1,3.7-7.7,5.7c-9.7,7.1-24,4.9-28.3-7.7c-0.2-0.5-0.8-0.9-1.3-1.4c0-2.3,0-4.7,0-7c0.4-0.5,1-0.9,1.2-1.4
			c6-14.5,13.3-28.5,20.3-42.6c2.7-5.4,5.6-10.4,10.5-14c3.3,0,6.7,0,10,0c4.8,2.8,7.6,7.1,10,12C115.8,61.2,122.5,74.6,128.9,88.1z
			 M122.6,105.4c3.7-3.7,4.6-8.1,2.5-12.9c-7-16-14.7-31.7-23-47c-3.6-6.6-11.1-6.8-14.8-0.2C78.7,60.8,70.8,76.8,64,93.2
			c-1.8,4.4-0.8,8.6,2.5,12c3.4,3.6,7.7,4.4,12.4,3c3.6-1.1,6.4-3.5,9.2-5.8c2.6-2,2.9-3.8,0.8-6.5c-4.1-5.3-7.3-11.1-7.6-17.6
			c0-6,2.1-10.2,7.1-12.8c5.1-2.6,10.1-2.1,14.6,1.3c4.4,3.3,5.8,7.9,5,13.3c-0.8,4.7-2.8,8.8-5.3,12.8c-4.6,7.3-4.4,8.3,3.2,13
			c1.1,0.7,2.3,1.3,3.5,1.8C114.2,109.8,118.8,109.2,122.6,105.4z M102.9,77.7c0.3-4.8-3.7-8.5-8.5-8.4c-4.6,0-8,3.6-8.1,9
			c0.5,5.5,3.6,10.5,7.1,15.4c0.8,1.1,1.5,1.1,2.3,0.1C99.3,88.9,102.6,83.9,102.9,77.7z"/>
	</g>
</g>
</svg>
